<?xml version="1.0" encoding="UTF-8" standalone="no"?>
<svg
   height="311.70963"
   width="1079.9312"
   viewBox="-55.971915 -15.649775 436.55311 36.586391"
   version="1.1"
   id="svg10"
   sodipodi:docname="Johns_Hopkins_University.svg"
   inkscape:version="1.1 (c68e22c387, 2021-05-23)"
   xmlns:inkscape="http://www.inkscape.org/namespaces/inkscape"
   xmlns:sodipodi="http://sodipodi.sourceforge.net/DTD/sodipodi-0.dtd"
   xmlns="http://www.w3.org/2000/svg"
   xmlns:svg="http://www.w3.org/2000/svg">
  <defs
     id="defs14" />
  <sodipodi:namedview
     id="namedview12"
     pagecolor="#ffffff"
     bordercolor="#111111"
     borderopacity="1"
     inkscape:pageshadow="0"
     inkscape:pageopacity="0"
     inkscape:pagecheckerboard="1"
     showgrid="false"
     inkscape:zoom="0.42956737"
     inkscape:cx="650.65463"
     inkscape:cy="29.099044"
     inkscape:window-width="1366"
     inkscape:window-height="705"
     inkscape:window-x="-8"
     inkscape:window-y="-8"
     inkscape:window-maximized="1"
     inkscape:current-layer="svg10"
     inkscape:snap-page="true" />
  <g
     fill="#002d72"
     id="g8"
     style="fill:#ffffff"
     transform="translate(-24.268413,-28.656079)">
    <path
       fill-rule="evenodd"
       d="m 24.1941,37.9953 a 21.8836,21.8836 0 0 0 -3.22,-0.9625 c -0.2338,0.7563 -0.5438,1.4888 -0.92,2.1913 0.8737,0.1812 1.7387,0.4262 2.5837,0.7425 a 8.9912,8.9912 0 0 0 1.5563,-1.9713 m -14.0338,1.9713 a 17.2592,17.2592 0 0 1 2.5725,-0.7388 c -0.38,-0.7062 -0.6912,-1.4387 -0.9225,-2.1912 -1.09,0.235 -2.1587,0.5562 -3.2062,0.9587 a 9.0285,9.0285 0 0 0 1.5562,1.9713 M 8.6041,28.8778 a 21.659,21.659 0 0 0 3.2062,0.96 c 0.2313,-0.7525 0.5425,-1.4837 0.92,-2.1875 -0.8725,-0.1825 -1.7312,-0.4262 -2.57,-0.7412 a 9.1342,9.1342 0 0 0 -1.5562,1.9687 m 14.0337,-1.9687 a 17.662,17.662 0 0 1 -2.5837,0.745 c 0.38,0.7037 0.6862,1.4325 0.92,2.185 a 21.2884,21.2884 0 0 0 3.22,-0.9613 9.096,9.096 0 0 0 -1.5563,-1.9687 m 2.7775,6.1025 c -0.055,-1.2 -0.3412,-2.34 -0.825,-3.375 a 22.1226,22.1226 0 0 1 -3.3862,1.025 c 0.18,0.7675 0.285,1.555 0.3125,2.35 z m -4.2112,3.2025 a 22.2533,22.2533 0 0 1 3.3862,1.0225 c 0.4838,-1.0338 0.77,-2.1725 0.825,-3.3738 h -3.8987 a 12.144,12.144 0 0 1 -0.3125,2.3513 m -0.835,-0.1663 c 0.1675,-0.715 0.2712,-1.445 0.2975,-2.185 h -3.8425 v 1.8388 c 1.1975,0.0237 2.3812,0.1362 3.545,0.3462 m -1.195,3.015 a 11.8465,11.8465 0 0 0 0.96,-2.1937 21.9216,21.9216 0 0 0 -3.31,-0.315 v 2.3012 c 0.785,0.0188 1.5725,0.0875 2.35,0.2075 m -1.48,3.3125 c 1.5662,-0.2287 2.9975,-0.8537 4.1975,-1.7737 a 16.7107,16.7107 0 0 0 -2.285,-0.6025 13.4438,13.4438 0 0 1 -1.9125,2.3762 m 0.9862,-2.5262 c -0.6137,-0.0825 -1.235,-0.1263 -1.8562,-0.145 v 2.3237 c 0.7112,-0.6662 1.3337,-1.395 1.8562,-2.1787 m -5.5025,0.1525 a 16.6952,16.6952 0 0 0 -2.2712,0.6 c 1.1925,0.9162 2.6212,1.5425 4.1812,1.77 a 13.5015,13.5015 0 0 1 -1.91,-2.37 m 0.9238,-0.1488 c 0.5275,0.785 1.1525,1.52 1.87,2.1888 V 39.704 c -0.6225,0.0187 -1.25,0.0675 -1.87,0.1487 m -1.4463,-2.9812 c 0.24,0.7575 0.56,1.4925 0.9575,2.1925 0.7825,-0.1213 1.57,-0.19 2.3588,-0.2088 V 36.554 a 21.985,21.985 0 0 0 -3.3163,0.3175 m -0.2375,-0.8238 c 1.1675,-0.21 2.3538,-0.3225 3.5538,-0.3462 v -1.8388 h -3.855 c 0.0312,0.74 0.1275,1.4725 0.3012,2.185 m -5.035,-2.185 c 0.0538,1.2025 0.34,2.34 0.8225,3.3738 a 22.0868,22.0868 0 0 1 3.3763,-1.0213 11.9675,11.9675 0 0 1 -0.3138,-2.3525 z m 4.1988,-3.2012 a 22.2425,22.2425 0 0 1 -3.3763,-1.025 c -0.4825,1.035 -0.7687,2.175 -0.8225,3.375 h 3.885 a 11.93,11.93 0 0 1 0.3138,-2.35 m 0.8337,0.1637 a 11.1839,11.1839 0 0 0 -0.2987,2.1863 h 3.855 v -1.84 a 22.4751,22.4751 0 0 1 -3.5563,-0.3463 m 1.195,-3.0125 c -0.3987,0.6988 -0.715,1.4325 -0.9587,2.1888 a 22.095,22.095 0 0 0 3.32,0.32 V 28.024 c -0.7938,-0.02 -1.585,-0.0888 -2.3613,-0.2113 m 1.4775,-3.31 c -1.56,0.2263 -2.9887,0.8525 -4.1812,1.7688 0.7437,0.255 1.5025,0.4562 2.2712,0.6 a 13.4934,13.4934 0 0 1 1.91,-2.3688 m -0.9862,2.5188 c 0.62,0.0837 1.2475,0.1325 1.87,0.1462 v -2.3325 a 12.4465,12.4465 0 0 0 -1.87,2.1863 m 5.505,-0.1475 a 16.7107,16.7107 0 0 0 2.285,-0.6025 c -1.2,-0.92 -2.6313,-1.545 -4.1975,-1.77 0.7387,0.725 1.3762,1.5262 1.9125,2.3725 m -0.925,0.1487 a 12.5447,12.5447 0 0 0 -1.8575,-2.175 v 2.32 c 0.6212,-0.0137 1.2425,-0.06 1.8575,-0.145 m 1.4525,2.9813 c -0.24,-0.7575 -0.56,-1.4913 -0.9563,-2.19 -0.775,0.1212 -1.5637,0.19 -2.3537,0.21 v 2.2975 c 1.1187,-0.0225 2.2212,-0.1313 3.31,-0.3175 m -3.31,3.0075 h 3.8425 C 20.6403,32.2727 20.5378,31.5427 20.3691,30.829 a 22.7488,22.7488 0 0 1 -3.545,0.3425 z m -0.4263,-9.4663 c -5.4537,0 -9.8912,4.4375 -9.8912,9.8913 0,5.4562 4.4375,9.8937 9.8912,9.8937 5.455,0 9.8925,-4.4375 9.8925,-9.8937 0,-5.4538 -4.4375,-9.8913 -9.8925,-9.8913 m 11.5975,-4.9887 c -9.115,0.085 -18.2162,1.0625 -27.0887,2.9475 3.9112,24.78 19.395,36.8462 27.0887,41.095 z"
       id="path2"
       style="fill:#ffffff" />
    <path
       d="m 46.8191,48.0328 c 0.0038,-0.0037 0.0063,-0.005 0.01,-0.0087 l -0.01,-0.0063 z m 5.4125,-8.9875 a 0.1347,0.1347 0 0 1 0.015,-0.03 l -0.015,-0.0087 z"
       id="path4"
       style="fill:#ffffff" />
    <path
       d="M 29.2811,0 C 19.6321,0 10.2231,1.0287 1.1501,2.9687 L 1.1152,2.9805 C 0.4789,3.1405 0,3.7175 0,4.4062 l 0.002,5.0841 c 0,3.344 0.2026,6.494 0.5663,9.48 18.835,-3.978 38.627,-3.977 57.432,-0.005 0.36,-2.984 0.564,-6.134 0.564,-9.475 l 0.002,-5.0841 c 0,-0.7062 -0.503,-1.3 -1.168,-1.4375 L 57.3793,2.9609 C 48.3193,1.0247 38.9193,0 29.2813,0 Z m 46.906,2.5078 c -0.283,0.145 -0.382,1.0002 -0.093,1.1914 l 1.189,0.0938 c 2.808,0.24 3.283,0.8119 3.283,6.0953 v 17.994 c 0,2.569 -0.144,9.712 -1.238,11.952 -0.331,0.665 -0.904,1.234 -1.902,1.234 -0.667,0 -1.332,-0.14 -1.998,-0.334 -0.619,-0.189 -1.194,-0.285 -1.766,-0.285 -0.999,0 -1.709,1.383 -1.709,2.191 0,0.953 1.474,1 2.045,1 4.426,0 7.805,-3.046 9.379,-6.857 0.904,-2.189 1.094,-5.474 1.094,-9.233 V 9.8883 c 0,-5.0471 0.098,-5.7116 2.906,-6.0953 l 0.711,-0.0938 c 0.287,-0.1912 0.191,-1.0464 -0.098,-1.1914 -1.901,0.095 -3.521,0.1465 -5.426,0.1465 -1.997,0 -3.613,-0.0515 -6.377,-0.1465 z m 129.52,0.002 c -0.29,0.1437 -0.38,0.9994 -0.1,1.1894 l 1.24,0.0938 c 2.47,0.1912 2.81,1 2.81,6.0003 v 17.138 c 0,4.999 -0.1,5.475 -2.76,5.951 l -0.81,0.143 c -0.29,0.285 -0.19,1.044 0.09,1.188 1.86,-0.049 3.48,-0.143 5.53,-0.143 1.85,0 3.47,0.045 6.04,0.143 0.28,-0.144 0.38,-0.999 0.1,-1.188 l -1.38,-0.143 c -2.67,-0.286 -2.91,-0.952 -2.91,-5.951 v -6.715 c 0,-1.427 0.1,-1.521 2.38,-1.521 h 13.62 c 2.28,0 2.37,0.094 2.37,1.521 v 6.715 c 0,4.999 0,5.475 -2.9,5.951 l -0.9,0.143 c -0.29,0.285 -0.19,1.044 0.1,1.188 2.09,-0.098 3.8,-0.143 5.75,-0.143 1.86,0 3.48,0.045 5.76,0.143 0.29,-0.144 0.38,-0.999 0.1,-1.188 l -1.14,-0.143 c -2.77,-0.334 -2.86,-0.952 -2.86,-5.951 V 9.7933 c 0,-5.0003 0.09,-5.7128 2.86,-6.0003 l 0.99,-0.0938 c 0.29,-0.19 0.2,-1.0457 -0.09,-1.1894 -2.14,0.0962 -3.76,0.1425 -5.62,0.1425 -1.95,0 -3.57,-0.0463 -5.75,-0.1425 -0.29,0.1437 -0.39,0.9994 -0.1,1.1894 l 0.9,0.0938 c 2.81,0.2875 2.9,1 2.9,6.0003 v 5.476 c 0,1.475 -0.09,1.52 -2.37,1.52 h -13.62 c -2.28,0 -2.38,-0.045 -2.38,-1.52 v -5.476 c 0,-5.0003 0.1,-5.7128 2.85,-6.0003 l 0.91,-0.0938 c 0.29,-0.19 0.19,-1.0457 -0.09,-1.1894 -2.05,0.0962 -3.67,0.1425 -5.52,0.1425 -2.05,0 -3.67,-0.0963 -6,-0.1425 z M 19.8171,2.707 c 3.183,0.0494 6.692,0.5676 9.455,1.584 h 0.012 c 4.419,-1.6262 10.753,-1.9794 14.598,-1.1719 l 1.677,1.3008 0.452,0.0703 c 0.15,0.02 0.27,0.1257 0.32,0.2207 l 4.68,10.341 c 0.151,0.288 -0.086,0.531 -0.354,0.479 -7.122,-1.354 -14.677,-1.77 -21.375,-1.77 h -0.006 c -6.7,0 -14.252,0.416 -21.373,1.77 -0.2699,0.052 -0.5047,-0.191 -0.3534,-0.479 l 4.6774,-10.341 c 0.052,-0.0954 0.169,-0.2011 0.323,-0.2211 l 0.447,-0.0703 1.678,-1.3008 c 1.442,-0.3028 3.233,-0.4417 5.142,-0.4121 z m -5.646,1.7422 -1.545,1.1699 -3.205,8.3472 c 4.277,-0.693 13.937,-1.476 18.722,-1.41 0.195,-0.087 0.435,-0.211 0.778,-0.211 -5.764,-1.888 -12.374,-2.174 -17.076,-1.285 z m 30.146,0 2.334,6.6111 c -4.704,-0.889 -11.322,-0.603 -17.086,1.285 0.346,0 0.586,0.124 0.778,0.211 4.788,-0.066 14.45,0.717 18.726,1.41 l -3.207,-8.3472 z m 57.959,2.4727 c -8.267,0 -14.295,6.1474 -14.295,14.179 0,7.227 5.384,13.614 14.295,13.614 7.76,0 13.94,-5.907 13.94,-14.018 0,-7.068 -4.66,-13.775 -13.94,-13.775 z m 151.55,0 c -8.27,0 -14.29,6.1474 -14.29,14.179 0,7.227 5.38,13.614 14.29,13.614 7.75,0 13.94,-5.907 13.94,-14.018 0,-7.068 -4.66,-13.775 -13.94,-13.775 z m -67.99,0.0019 c -5.22,0 -8.19,3.0905 -8.19,6.9065 0,3.29 2.32,5.581 4.34,6.906 l 3.81,2.492 c 2.93,1.885 3.3,3.854 3.3,5.621 0,2.412 -1.66,4.619 -5.03,4.619 -4.65,0 -6.3,-3.936 -6.9,-5.982 -0.16,-0.242 -0.76,-0.162 -0.97,0.119 0.08,1.888 0.61,4.738 1.09,5.623 0.76,0.441 2.89,1.487 6.26,1.487 5.22,0 8.56,-3.015 8.56,-7.43 0,-3.818 -2.5,-6.146 -5.03,-7.713 l -3.21,-2.006 c -1.48,-0.922 -3.41,-2.613 -3.41,-4.941 0,-1.849 0.84,-4.4554 4.78,-4.4554 3.85,0 4.94,2.6074 5.46,4.5374 0.2,0.237 0.84,0.12 1,-0.121 0,-1.687 -0.36,-3.9351 -0.72,-4.8988 -0.32,0 -0.88,-0.0829 -1.4,-0.2442 -1.05,-0.28 -2.49,-0.5195 -3.74,-0.5195 z m 181.05,0 c -5.22,0 -8.2,3.0905 -8.2,6.9065 0,3.29 2.33,5.581 4.34,6.906 l 3.82,2.492 c 2.93,1.885 3.29,3.854 3.29,5.621 0,2.412 -1.65,4.619 -5.02,4.619 -4.66,0 -6.31,-3.936 -6.91,-5.982 -0.16,-0.242 -0.76,-0.162 -0.96,0.119 0.08,1.888 0.6,4.738 1.08,5.623 0.77,0.441 2.89,1.487 6.27,1.487 5.22,0 8.55,-3.015 8.55,-7.43 0,-3.818 -2.49,-6.146 -5.02,-7.713 l -3.21,-2.006 c -1.49,-0.922 -3.42,-2.613 -3.42,-4.941 0,-1.849 0.85,-4.4554 4.79,-4.4554 3.85,0 4.93,2.6074 5.46,4.5374 0.2,0.237 0.84,0.12 1,-0.121 0,-1.687 -0.36,-3.9351 -0.72,-4.8988 -0.32,0 -0.89,-0.0829 -1.41,-0.2442 -1.04,-0.28 -2.49,-0.5195 -3.73,-0.5195 z m -250.18,0.5195 c -0.24,0.1188 -0.32,0.844 -0.08,1.004 l 1.04,0.08 c 2.09,0.1613 2.37,0.846 2.37,5.063 v 14.457 c 0,4.216 -0.08,4.62 -2.33,5.019 l -0.68,0.121 c -0.24,0.24 -0.16,0.883 0.08,1.004 1.57,-0.04 2.93,-0.121 4.66,-0.121 1.57,0 2.93,0.039 5.1,0.121 0.24,-0.121 0.32,-0.844 0.08,-1.004 l -1.16,-0.121 c -2.25,-0.241 -2.45,-0.803 -2.45,-5.019 v -5.663 c 0,-1.205 0.08,-1.285 2,-1.285 h 11.49 c 1.93,0 2.01,0.08 2.01,1.285 v 5.663 c 0,4.216 0,4.62 -2.45,5.019 l -0.76,0.121 c -0.25,0.24 -0.17,0.883 0.08,1.004 1.76,-0.082 3.2,-0.121 4.86,-0.121 1.56,0 2.93,0.039 4.85,0.121 0.24,-0.121 0.32,-0.844 0.08,-1.004 l -0.96,-0.121 c -2.33,-0.281 -2.41,-0.803 -2.41,-5.019 v -14.457 c 0,-4.217 0.08,-4.8205 2.41,-5.063 l 0.85,-0.08 c 0.23,-0.16 0.15,-0.8852 -0.08,-1.004 -1.81,0.0813 -3.18,0.1192 -4.74,0.1192 -1.66,0 -3.02,-0.0379 -4.86,-0.1192 -0.25,0.1188 -0.33,0.844 -0.08,1.004 l 0.76,0.08 c 2.37,0.2425 2.45,0.846 2.45,5.063 v 4.617 c 0,1.246 -0.08,1.287 -2.01,1.287 h -11.49 c -1.92,0 -2,-0.041 -2,-1.287 v -4.617 c 0,-4.217 0.08,-4.8205 2.4,-5.063 l 0.77,-0.08 c 0.24,-0.16 0.16,-0.8852 -0.08,-1.004 -1.73,0.0813 -3.09,0.1192 -4.66,0.1192 -1.73,0 -3.09,-0.0779 -5.06,-0.1192 z m 30.56,0 c -0.31,0.1625 -0.32,0.7666 -0.07,1.0079 l 0.68,0.0761 c 0.96,0.1225 1.92,0.4043 2.49,0.967 0.84,0.921 0.88,1.767 0.88,2.89 v 11.608 c 0,1.927 0.04,6.826 -0.52,8.271 -0.2,0.445 -0.84,0.683 -1.77,0.803 l -1.08,0.121 c -0.25,0.24 -0.21,0.804 0.07,1.004 1.41,-0.08 2.5,-0.121 4.18,-0.121 1.49,0 2.9,0.041 4.7,0.121 0.28,-0.2 0.32,-0.681 0.08,-1.004 l -1.24,-0.121 c -1.01,-0.08 -1.81,-0.321 -2.05,-0.766 -0.68,-1.202 -0.72,-6.422 -0.72,-8.308 v -8.756 c 0,-1.205 0.04,-2.127 0.2,-2.609 h 0.08 c 0.84,0.883 3.57,4.176 4.66,5.42 l 9.31,10.605 c 3.5,3.973 4.66,5.38 5.15,6.063 0.44,0 0.68,-0.203 0.76,-0.442 -0.12,-1.044 -0.12,-5.825 -0.12,-7.031 v -9.598 c 0,-1.847 -0.08,-6.826 0.6,-8.273 0.16,-0.3202 0.96,-0.6427 2.25,-0.844 l 0.56,-0.0761 c 0.24,-0.2413 0.24,-0.8066 -0.08,-1.0079 -1.36,0.08 -2.41,0.1192 -4.14,0.1192 -1.52,0 -2.89,-0.0392 -4.74,-0.1192 -0.32,0.1188 -0.36,0.7666 -0.07,1.0079 l 0.68,0.0761 c 1.6,0.2013 2.24,0.4422 2.49,0.805 0.76,1.205 0.8,6.426 0.8,8.312 v 8.594 c 0,0.844 0,1.487 -0.16,1.687 h -0.08 c -1.89,-1.928 -3.86,-4.175 -6.63,-7.269 l -3.9,-4.377 c -1.32,-1.484 -6.06,-6.786 -6.86,-8.836 -0.52,0.08 -1.2,0.1192 -1.85,0.1192 -0.72,0 -2.85,-4e-4 -4.54,-0.1192 z m 129.18,0 c -3.34,0 -5.83,0.0411 -7.96,0.3223 -0.32,0.1613 -0.36,0.7646 -0.08,1.0059 l 1.45,0.1601 c 1.8,0.1988 1.88,0.8817 1.88,4.2967 v 14.819 c 0,4.216 -0.08,4.699 -2.41,5.019 l -0.84,0.121 c -0.24,0.24 -0.16,0.883 0.09,1.004 1.76,-0.082 3.21,-0.121 4.89,-0.121 1.61,0 2.93,0.039 5.22,0.121 0.24,-0.121 0.32,-0.805 0.08,-1.004 l -1.09,-0.121 c -2.56,-0.281 -2.64,-0.803 -2.64,-5.019 v -17.911 c 0,-1.2883 0.04,-1.4469 2.17,-1.4469 4.17,0 6.46,2.5299 6.46,6.4259 0,3.495 -1.57,5.945 -5.9,6.75 -0.24,0.079 -0.24,0.679 0.04,0.801 1.65,0 3.77,-0.362 5.54,-1.205 1.73,-0.844 4.02,-2.69 4.02,-6.385 0,-2.771 -1.37,-4.858 -3.22,-6.0255 -1.88,-1.165 -4.38,-1.6075 -7.7,-1.6075 z m 39.49,0 c -0.24,0.12 -0.33,0.8447 -0.08,1.0059 l 1,0.0801 c 2.37,0.2 2.45,0.882 2.45,5.141 v 14.295 c 0,4.258 -0.08,4.822 -2.45,5.103 l -1,0.119 c -0.25,0.24 -0.16,0.883 0.08,1.004 2.01,-0.081 3.37,-0.121 5.06,-0.121 1.61,0 2.97,0.04 4.98,0.121 0.24,-0.121 0.32,-0.844 0.08,-1.004 l -1,-0.119 c -2.37,-0.281 -2.46,-0.845 -2.46,-5.103 v -14.295 c 0,-4.259 0.09,-4.941 2.46,-5.141 l 1,-0.0801 c 0.24,-0.1612 0.16,-0.8859 -0.08,-1.0059 -2.01,0.08 -3.37,0.1211 -4.98,0.1211 -1.69,0 -3.05,-0.0411 -5.06,-0.1211 z m 12.45,0 c -0.32,0.1625 -0.32,0.7666 -0.08,1.0079 l 0.68,0.0761 c 0.97,0.1225 1.93,0.4043 2.49,0.967 0.85,0.921 0.88,1.767 0.88,2.89 v 11.608 c 0,1.927 0.05,6.826 -0.52,8.271 -0.2,0.445 -0.84,0.683 -1.76,0.803 l -1.09,0.121 c -0.24,0.24 -0.2,0.804 0.08,1.004 1.41,-0.08 2.49,-0.121 4.18,-0.121 1.48,0 2.89,0.041 4.7,0.121 0.28,-0.2 0.32,-0.681 0.08,-1.004 l -1.25,-0.121 c -1,-0.08 -1.8,-0.321 -2.05,-0.766 -0.68,-1.202 -0.72,-6.422 -0.72,-8.308 v -8.756 c 0,-1.205 0.04,-2.127 0.21,-2.609 h 0.07 c 0.84,0.883 3.58,4.176 4.66,5.42 l 9.32,10.605 c 3.49,3.973 4.66,5.38 5.14,6.063 0.44,0 0.68,-0.203 0.76,-0.442 -0.12,-1.044 -0.12,-5.825 -0.12,-7.031 v -9.598 c 0,-1.847 -0.08,-6.826 0.6,-8.273 0.16,-0.3202 0.97,-0.6427 2.25,-0.844 l 0.57,-0.0761 c 0.24,-0.2413 0.24,-0.8066 -0.08,-1.0079 -1.37,0.08 -2.41,0.1192 -4.14,0.1192 -1.53,0 -2.89,-0.0392 -4.74,-0.1192 -0.32,0.1188 -0.36,0.7666 -0.08,1.0079 l 0.68,0.0761 c 1.61,0.2013 2.25,0.4422 2.49,0.805 0.76,1.205 0.81,6.426 0.81,8.312 v 8.594 c 0,0.844 0,1.487 -0.17,1.687 h -0.08 c -1.88,-1.928 -3.85,-4.175 -6.62,-7.269 l -3.9,-4.377 c -1.32,-1.484 -6.06,-6.786 -6.87,-8.836 -0.52,0.08 -1.2,0.1192 -1.84,0.1192 -0.73,0 -2.85,-4e-4 -4.54,-0.1192 z m -39.98,0.002 c -0.24,0.1175 -0.32,0.8414 -0.08,1.0039 l 1.01,0.0801 c 2.33,0.2 2.41,0.842 2.41,5.059 v 14.461 c 0,4.215 -0.08,4.697 -2.21,5.017 l -0.81,0.123 c -0.24,0.281 -0.15,0.88 0.09,1.004 1.64,-0.084 3.01,-0.123 4.65,-0.123 1.57,0 2.94,0.039 4.9,0.123 0.25,-0.124 0.32,-0.844 0.08,-1.004 l -1.08,-0.123 c -2.25,-0.242 -2.33,-0.802 -2.33,-5.017 v -5.182 c 0,-1.406 0.08,-1.928 0.68,-1.928 0.97,0 1.61,0.802 3.9,3.371 l 3.21,3.615 c 1.53,1.729 2.57,2.812 3.33,3.776 0.28,0.362 0.57,0.683 0.57,0.926 0,0.198 -0.4,0.318 -0.97,0.398 l -0.92,0.164 c -0.24,0.24 -0.12,0.92 0.16,1.004 1.85,-0.084 3.25,-0.123 4.9,-0.123 1.89,0 3.45,0.039 4.5,0.123 0.28,-0.124 0.36,-0.805 0.08,-1.004 l -1.08,-0.123 c -1.37,-0.16 -2.25,-0.683 -3.22,-1.646 -3.13,-3.292 -6.22,-6.909 -10.04,-11.286 -0.52,-0.641 -0.76,-0.964 -0.76,-1.244 0,-0.321 0.36,-0.682 0.92,-1.246 l 3.61,-3.412 c 2.25,-2.13 4.5,-4.017 5.63,-4.658 1.12,-0.6438 2.69,-1.0451 3.73,-1.1251 0.24,-0.2412 0.2,-0.8039 -0.08,-1.0039 -1.2,0.08 -2.57,0.1172 -3.97,0.1172 -1.41,0 -3.01,-0.0372 -4.42,-0.1172 -0.32,0.2 -0.36,0.7227 -0.08,1.0039 l 1.08,0.2402 c 0.53,0.1225 0.69,0.2424 0.69,0.4024 0,0.16 -0.08,0.3615 -0.29,0.6405 -0.4,0.565 -2.37,2.612 -3.13,3.336 l -4.33,4.295 c -0.45,0.401 -1.49,1.448 -2.05,1.928 -0.28,0.202 -0.77,0.445 -1.13,0.445 -0.44,0 -0.52,-0.765 -0.52,-1.527 v -4.621 c 0,-4.217 0.08,-4.8178 2.41,-5.059 l 0.76,-0.0801 c 0.25,-0.1625 0.16,-0.8864 -0.08,-1.0039 -1.72,0.08 -3.09,0.1172 -4.66,0.1172 -1.8,0 -3.09,-0.0372 -5.06,-0.1172 z m -186.81,0.7246 c 7.67,0 10.61,7.1464 10.61,13.771 0,7.914 -4.58,11.527 -9.4,11.527 -7.912,0 -10.803,-7.712 -10.803,-13.652 0,-8.795 5.419,-11.646 9.593,-11.646 z m 151.55,0 c 7.67,0 10.6,7.1464 10.6,13.771 0,7.914 -4.57,11.527 -9.39,11.527 -7.91,0 -10.81,-7.712 -10.81,-13.652 0,-8.795 5.43,-11.646 9.6,-11.646 z m -222.59,10.386 v 6.028 l 5.424,3.603 v -9.469 c -1.805,-0.085 -3.616,-0.145 -5.424,-0.162 z m 10.846,0.526 v 12.713 l 5.418,3.611 v -15.725 c -1.801,-0.228 -3.607,-0.439 -5.418,-0.599 z m 10.836,1.394 v 18.533 l -5.416,-3.603 v 12.623 l 0.01,0.006 c 1.935,-2.625 3.778,-5.615 5.408,-8.985 v -0.037 l 0.014,0.008 c 2.395,-4.965 4.327,-10.765 5.394,-17.521 -1.796,-0.382 -3.596,-0.72 -5.41,-1.024 z m -16.258,7.715 v 12.619 l -5.422,-3.605 v 25.39 c 1.547,-0.85 3.405,-2.026 5.422,-3.546 v -18.237 l 5.42,3.61 v -12.625 z m 5.422,16.229 v 9.918 c 1.823,-1.809 3.661,-3.908 5.418,-6.295 v -0.014 z m 252.62,2.021 c -0.08,0.003 -0.17,0.019 -0.2,0.039 -0.14,0.828 -0.45,2.157 -0.79,3.092 0.09,0.162 0.38,0.268 0.54,0.144 0.23,-0.52 0.44,-0.977 0.93,-1.433 0.52,-0.476 1.66,-0.518 2.56,-0.518 h 1.14 c 0.62,0 0.62,0.017 0.62,0.662 v 9.272 c 0,2.174 -0.11,2.489 -1.29,2.59 l -0.74,0.064 c -0.17,0.1 -0.13,0.455 0,0.516 1.33,-0.039 2.05,-0.061 2.88,-0.061 0.83,0 1.54,0.022 2.72,0.061 0.12,-0.061 0.16,-0.435 0.04,-0.516 l -0.67,-0.064 c -1.2,-0.101 -1.24,-0.416 -1.24,-2.59 v -9.229 c 0,-0.686 -0.02,-0.705 0.6,-0.705 h 1.47 c 1.14,0 1.93,0.165 2.41,0.518 0.31,0.229 0.46,0.997 0.52,1.514 0.1,0.123 0.46,0.123 0.54,-0.039 -0.07,-0.626 0.08,-2.304 0.31,-3.153 -0.04,-0.082 -0.27,-0.102 -0.38,-0.062 -0.3,0.538 -0.49,0.578 -1.61,0.578 h -8.4 c -0.96,0 -1.64,0.023 -1.76,-0.641 -0.03,-0.031 -0.12,-0.042 -0.2,-0.039 z m -33.85,0.35 c -2.7,0 -4.24,1.598 -4.24,3.568 0,1.7 1.21,2.879 2.25,3.566 l 1.97,1.288 c 1.51,0.971 1.7,1.988 1.7,2.902 0,1.246 -0.85,2.383 -2.59,2.383 -2.41,0 -3.26,-2.031 -3.57,-3.088 -0.08,-0.125 -0.4,-0.087 -0.5,0.06 0.04,0.974 0.31,2.445 0.56,2.903 0.39,0.23 1.49,0.767 3.24,0.767 2.69,0 4.41,-1.554 4.41,-3.836 0,-1.97 -1.28,-3.171 -2.59,-3.98 l -1.66,-1.041 c -0.77,-0.476 -1.76,-1.343 -1.76,-2.549 0,-0.954 0.44,-2.303 2.47,-2.303 1.99,0 2.55,1.35 2.82,2.346 0.1,0.124 0.43,0.063 0.51,-0.062 0,-0.873 -0.18,-2.034 -0.37,-2.534 -0.17,0 -0.46,-0.038 -0.72,-0.123 -0.55,-0.143 -1.29,-0.267 -1.93,-0.267 z m -144.8,0.267 c -0.12,0.063 -0.17,0.415 -0.04,0.5 l 0.52,0.039 c 1.2,0.104 1.24,0.457 1.24,2.614 v 4.896 c 0,2.468 0.52,3.98 1.62,4.893 1.02,0.87 2.45,1.142 3.88,1.142 1.53,0 3.07,-0.54 3.96,-1.517 1.16,-1.242 1.45,-3.149 1.45,-4.951 v -2.348 c 0,-1.164 0,-3.546 0.29,-4.229 0.12,-0.271 0.52,-0.457 1.04,-0.5 l 0.5,-0.039 c 0.1,-0.127 0.12,-0.395 -0.05,-0.5 -0.74,0.043 -1.3,0.063 -2.18,0.063 -0.8,0 -1.57,-0.02 -2.36,-0.063 -0.12,0.085 -0.16,0.354 -0.04,0.5 l 0.52,0.039 c 0.52,0.043 0.89,0.187 1.04,0.438 0.35,0.621 0.39,3.006 0.39,4.291 v 2.387 c 0,3.153 -1.14,5.513 -4.15,5.513 -3.17,0 -4.21,-2.197 -4.21,-5.533 v -4.482 c 0,-2.157 0.04,-2.51 1.24,-2.614 l 0.51,-0.039 c 0.12,-0.085 0.08,-0.437 -0.05,-0.5 -1.01,0.043 -1.7,0.063 -2.55,0.063 -0.83,0 -1.53,-0.02 -2.57,-0.063 z m 25.63,0 c -0.17,0.085 -0.17,0.395 -0.04,0.52 l 0.35,0.043 c 0.49,0.061 0.99,0.205 1.28,0.496 0.44,0.477 0.46,0.913 0.46,1.494 v 5.99 c 0,0.998 0.02,3.532 -0.27,4.272 -0.1,0.228 -0.44,0.353 -0.91,0.416 l -0.56,0.064 c -0.13,0.125 -0.11,0.412 0.04,0.516 0.73,-0.039 1.29,-0.061 2.15,-0.061 0.77,0 1.5,0.022 2.43,0.061 0.15,-0.104 0.17,-0.352 0.04,-0.516 l -0.64,-0.064 c -0.52,-0.04 -0.93,-0.164 -1.06,-0.393 -0.35,-0.621 -0.37,-3.317 -0.37,-4.295 v -4.521 c 0,-0.618 0.02,-1.097 0.1,-1.346 h 0.04 c 0.44,0.458 1.85,2.157 2.41,2.801 l 4.81,5.474 c 1.8,2.053 2.41,2.779 2.65,3.131 0.23,0 0.36,-0.103 0.4,-0.228 -0.06,-0.539 -0.06,-3.006 -0.06,-3.627 v -4.957 c 0,-0.955 -0.04,-3.525 0.31,-4.274 0.08,-0.166 0.5,-0.332 1.16,-0.433 l 0.29,-0.043 c 0.12,-0.125 0.12,-0.415 -0.04,-0.52 -0.71,0.043 -1.25,0.063 -2.14,0.063 -0.79,0 -1.49,-0.02 -2.44,-0.063 -0.17,0.063 -0.19,0.395 -0.04,0.52 l 0.35,0.043 c 0.83,0.101 1.16,0.224 1.28,0.414 0.4,0.62 0.42,3.319 0.42,4.293 v 4.437 c 0,0.435 0,0.768 -0.08,0.871 h -0.05 c -0.97,-0.996 -1.99,-2.158 -3.42,-3.754 l -2.01,-2.261 c -0.68,-0.765 -3.13,-3.504 -3.55,-4.563 -0.27,0.043 -0.62,0.063 -0.95,0.063 -0.37,0 -1.47,0 -2.34,-0.063 z m 26.95,0 c -0.12,0.063 -0.17,0.435 -0.04,0.52 l 0.52,0.043 c 1.22,0.101 1.26,0.452 1.26,2.652 v 7.383 c 0,2.196 -0.04,2.487 -1.26,2.631 l -0.52,0.066 c -0.13,0.125 -0.08,0.455 0.04,0.518 1.04,-0.04 1.74,-0.063 2.61,-0.063 0.83,0 1.54,0.023 2.57,0.063 0.13,-0.063 0.17,-0.435 0.04,-0.518 l -0.51,-0.066 c -1.23,-0.144 -1.27,-0.435 -1.27,-2.631 v -7.383 c 0,-2.2 0.04,-2.551 1.27,-2.652 l 0.51,-0.043 c 0.13,-0.085 0.09,-0.457 -0.04,-0.52 -1.03,0.043 -1.74,0.063 -2.57,0.063 -0.87,0 -1.57,-0.02 -2.61,-0.063 z m 16.53,0 c -0.17,0.104 -0.19,0.396 -0.05,0.52 l 0.38,0.043 c 0.89,0.101 1.2,0.539 1.67,1.699 l 3.66,9 c 0.35,0.872 0.72,1.885 0.95,2.758 0.1,0.04 0.21,0.062 0.31,0.062 0.08,0 0.17,-0.022 0.23,-0.062 0.35,-1.101 1.32,-3.503 2.15,-5.414 l 1.12,-2.549 c 0.94,-2.111 1.74,-3.796 2.33,-4.77 0.27,-0.435 0.58,-0.685 1.08,-0.724 l 0.62,-0.043 c 0.1,-0.104 0.1,-0.435 -0.05,-0.52 -0.68,0.043 -1.32,0.061 -2.01,0.061 -0.78,0 -1.57,-0.018 -2.15,-0.061 -0.15,0.085 -0.19,0.396 -0.04,0.52 l 0.37,0.043 c 0.73,0.081 0.93,0.247 0.93,0.39 0,0.148 -0.02,0.378 -0.19,0.813 -0.35,0.891 -1.32,3.234 -1.92,4.642 -0.48,1.102 -1.35,3.236 -1.99,4.606 -1.04,-2.366 -1.99,-4.749 -2.95,-7.154 -0.64,-1.577 -0.99,-2.697 -1.03,-2.907 0.02,-0.166 0.18,-0.289 0.97,-0.39 l 0.31,-0.043 c 0.15,-0.124 0.11,-0.435 -0.04,-0.52 -0.87,0.043 -1.6,0.061 -2.51,0.061 -0.89,0 -1.56,-0.018 -2.15,-0.061 z m 25.42,0 c -0.13,0.063 -0.17,0.435 -0.05,0.52 l 0.33,0.045 c 1.23,0.141 1.27,0.451 1.27,2.611 v 7.467 c 0,2.172 -0.1,2.485 -1.29,2.586 l -0.68,0.066 c -0.12,0.124 -0.09,0.455 0.04,0.518 1.22,-0.04 1.93,-0.063 2.82,-0.063 h 1.87 c 1.84,0 3.69,0.023 5.55,0.063 0.27,-0.559 0.79,-2.155 0.94,-2.881 -0.08,-0.189 -0.38,-0.252 -0.52,-0.147 -0.54,1.078 -1.1,1.804 -1.47,2.01 -0.46,0.229 -1.06,0.311 -2.66,0.311 -1.82,0 -2.26,-0.23 -2.51,-0.479 -0.32,-0.35 -0.39,-1.053 -0.39,-2.152 v -2.922 c 0,-0.542 0.06,-0.562 0.68,-0.562 h 1.21 c 0.8,0 1.3,0.02 1.6,0.105 0.41,0.104 0.55,0.415 0.63,0.789 l 0.2,0.805 c 0.09,0.123 0.45,0.124 0.53,-0.024 0,-0.45 -0.08,-1.241 -0.08,-1.986 0,-0.788 0.08,-1.598 0.08,-2.098 -0.08,-0.143 -0.44,-0.144 -0.53,-0.019 l -0.17,0.849 c -0.11,0.52 -0.25,0.644 -0.5,0.729 -0.25,0.082 -0.9,0.125 -1.76,0.125 h -1.21 c -0.62,0 -0.68,0 -0.68,-0.582 v -4.149 c 0,-0.787 0,-0.83 0.62,-0.83 h 1.49 c 0.92,0 1.58,0.02 2.01,0.125 1.09,0.272 1.27,0.997 1.58,1.971 0.11,0.125 0.44,0.085 0.52,-0.039 -0.08,-0.915 -0.21,-2.407 -0.33,-2.762 -0.25,0.063 -1.47,0.063 -2.8,0.063 h -3.9 c -0.85,0 -1.55,-0.019 -2.44,-0.063 z m 27.09,0 c -2.03,0 -3.46,0.061 -4.62,0.166 -0.17,0.082 -0.17,0.416 -0.03,0.522 l 0.67,0.08 c 0.85,0.105 0.91,0.457 0.91,2.43 v 7.445 c 0,2.172 -0.04,2.442 -1.24,2.586 l -0.52,0.066 c -0.13,0.144 -0.08,0.455 0.04,0.518 0.97,-0.04 1.72,-0.063 2.59,-0.063 0.83,0 1.54,0.023 2.47,0.063 0.13,-0.063 0.17,-0.417 0.04,-0.518 l -0.43,-0.066 c -1.21,-0.163 -1.25,-0.414 -1.25,-2.586 v -2.611 c 0,-0.439 0.04,-0.459 0.98,-0.459 0.83,0 1.16,0.206 1.47,0.664 0.64,0.931 1.49,2.363 2.03,3.13 1.47,2.092 2.53,2.612 4.3,2.612 0.39,0 0.72,-0.043 0.91,-0.106 0.1,-0.081 0.08,-0.248 -0.02,-0.291 -0.56,-0.04 -1.08,-0.268 -1.43,-0.578 -1.41,-1.18 -2.51,-2.84 -4.17,-5.513 -0.1,-0.167 -0.21,-0.377 -0.11,-0.5 1.04,-0.415 2.6,-1.491 2.6,-3.461 0,-1.454 -0.73,-2.388 -1.73,-2.905 -0.95,-0.52 -2.17,-0.625 -3.46,-0.625 z m 38.77,0 c -0.13,0.063 -0.17,0.435 -0.04,0.52 l 0.52,0.043 c 1.22,0.101 1.26,0.452 1.26,2.652 v 7.383 c 0,2.196 -0.04,2.487 -1.26,2.631 l -0.52,0.066 c -0.13,0.125 -0.09,0.455 0.04,0.518 1.04,-0.04 1.74,-0.063 2.61,-0.063 0.83,0 1.54,0.023 2.57,0.063 0.13,-0.063 0.17,-0.435 0.04,-0.518 l -0.52,-0.066 c -1.22,-0.144 -1.26,-0.435 -1.26,-2.631 v -7.383 c 0,-2.2 0.04,-2.551 1.26,-2.652 l 0.52,-0.043 c 0.13,-0.085 0.09,-0.457 -0.04,-0.52 -1.03,0.043 -1.74,0.063 -2.57,0.063 -0.87,0 -1.57,-0.02 -2.61,-0.063 z m 41.41,0 c -0.15,0.085 -0.17,0.372 -0.05,0.52 l 0.58,0.103 c 0.63,0.102 0.94,0.207 1.65,1.575 l 2.44,4.773 c 0.6,1.16 0.66,1.427 0.66,2.568 v 1.061 c 0,2.216 -0.04,2.506 -1.24,2.631 l -0.64,0.064 c -0.13,0.125 -0.09,0.453 0.04,0.516 1.1,-0.041 1.84,-0.063 2.72,-0.063 0.82,0 1.53,0.022 2.82,0.063 0.12,-0.063 0.17,-0.391 0.04,-0.516 l -0.79,-0.064 c -1.12,-0.083 -1.25,-0.415 -1.25,-2.631 v -1.08 c 0,-1.594 0.07,-1.781 0.98,-3.36 l 1.31,-2.257 c 1.03,-1.785 1.66,-3.093 2.73,-3.28 l 0.59,-0.103 c 0.14,-0.125 0.12,-0.415 -0.05,-0.52 -0.7,0.043 -1.28,0.063 -1.93,0.063 -0.63,0 -1.24,-0.02 -1.99,-0.063 -0.16,0.085 -0.18,0.372 -0.04,0.52 l 0.37,0.043 c 0.51,0.061 0.88,0.205 0.88,0.33 0,0.247 -0.77,1.659 -1.35,2.738 -0.62,1.203 -1.31,2.405 -1.95,3.506 -0.81,-1.435 -1.58,-3.071 -2.34,-4.604 -0.11,-0.208 -0.65,-1.392 -0.65,-1.597 0,-0.168 0.15,-0.272 0.87,-0.373 l 0.27,-0.043 c 0.13,-0.125 0.13,-0.457 -0.06,-0.52 -0.52,0.043 -1.26,0.063 -2.21,0.063 -1,0 -1.75,-0.02 -2.41,-0.063 z m -80.2,0.645 c 2.3,0 3.32,1.554 3.32,3.195 0,1.409 -0.48,2.133 -1.04,2.568 -0.6,0.458 -1.38,0.54 -2.13,0.54 -1.06,0 -1.37,-0.04 -1.44,-0.102 -0.06,-0.085 -0.06,-0.313 -0.06,-0.686 v -4.853 c 0,-0.581 0.06,-0.662 1.35,-0.662 z"
       id="path6"
       style="fill:#ffffff" />
  </g>
</svg>
